<?xml version="1.0" encoding="utf-8"?>
<!-- Generator: Adobe Illustrator 27.5.0, SVG Export Plug-In . SVG Version: 6.00 Build 0)  -->
<svg version="1.1" id="Layer_1" xmlns="http://www.w3.org/2000/svg" xmlns:xlink="http://www.w3.org/1999/xlink" x="0px" y="0px"
	 viewBox="0 0 344.605 358.482" style="enable-background:new 0 0 344.605 358.482;" xml:space="preserve">
<rect x="0.001" y="0" width="344.605" height="358.482"/>
<g>
	<g>
		<circle style="fill-rule:evenodd;clip-rule:evenodd;fill:#FFFFFF;" cx="171.8" cy="167.67" r="131.733"/>
		
			<ellipse transform="matrix(0.7071 -0.7071 0.7071 0.7071 -68.2417 170.5902)" style="fill-rule:evenodd;clip-rule:evenodd;fill:#D4AF75;" cx="171.8" cy="167.67" rx="125.616" ry="125.616"/>
	</g>
	<g>
		<path style="fill:#FFFFFF;" d="M213.473,150.832c-0.007-0.009-0.015-0.018-0.023-0.027c-1.219-1.312-2.981-2.117-4.716-1.793
			c-33.871,6.329-67.753,12.599-101.579,19.167c-3.684,0.715-7.368,1.43-11.051,2.145c-0.002,0-0.004,0.001-0.008,0.001
			c-1.399,0.272-2.799,0.544-4.199,0.817c-0.003,0-0.007,0.001-0.01,0.001c-2.28,0.443-4.561,0.886-6.842,1.329
			c-0.506,0.099-1.011,0.196-1.519,0.294c-0.813,0.159-0.283-0.176-0.187-0.148c-2.413-0.709-5.138,0.225-7.227,1.588
			c-3.448,0.67-6.896,1.339-10.346,2.009c-0.158,0.031-0.309,0.078-0.465,0.117c-8.064,1.566-16.126,3.131-24.188,4.696
			c-3.207,0.621-5.217,2.899-5.107,6.221c0.215,6.589,1.872,13.246,3.531,19.58c4.225,16.112,11.588,31.322,20.491,45.344
			c20.248,31.889,50.523,57.745,85.845,71.401c5.929,2.292,12.136,4.45,18.402,5.629c3.277,0.617,5.746-1.767,6.535-4.701
			c1.347-5.012,2.694-10.024,4.042-15.037c0.084-0.231,0.161-0.464,0.225-0.699c7.054-26.243,13.425-49.941,20.573-76.531
			c6.435-25.529,12.871-51.058,19.307-76.586C215.388,153.946,214.7,152.134,213.473,150.832z"/>
		<g>
			<path style="fill:#D28B46;" d="M209.501,154.681l-76.043,14.209l-91.6,17.78c0,0,1.267,42.002,42.282,87.313
				c37.52,41.449,81.24,49.582,81.24,49.582l24.817-92.302L209.501,154.681z"/>
			<path style="fill:#F8A353;" d="M190.221,231.296l19.307-76.585l-76.045,14.208l-74.51,14.464
				c-1.604,28.615,7.685,59.883,29.543,86.44c22.83,27.77,52.243,39.234,81.132,38.005L190.221,231.296z"/>
			<path style="fill:#FCC267;" d="M190.17,231.241l19.309-76.585l-76.049,14.21l-66.919,12.993
				c-5.196,36.215,8.054,71.632,34.32,92.794c20.392,16.086,46.043,24.097,71.514,22.903L190.17,231.241z"/>
			<g>
				<path style="fill:#4E3217;" d="M161.423,262.04c-4.027,4.461-3.815,11.007,0.209,14.945c4.035,3.932,10.419,4.637,14.542,1.271
					c4.115-3.361,4.414-10.402,0.296-15.422C172.348,257.806,165.46,257.593,161.423,262.04z M173.443,265.713
					c2.441,2.984,2.273,7.153-0.171,9.143c-2.448,1.996-6.224,1.57-8.624-0.749c-2.383-2.34-2.506-6.21-0.117-8.859
					C166.922,262.607,171.002,262.731,173.443,265.713z"/>
				<path style="fill:#4E3217;" d="M145.828,229.63c-4.038,4.456-3.825,11.008,0.194,14.946c4.052,3.933,10.431,4.639,14.547,1.259
					c4.123-3.351,4.415-10.384,0.3-15.414C156.756,225.398,149.859,225.181,145.828,229.63z M157.847,233.314
					c2.438,2.973,2.263,7.134-0.182,9.128c-2.434,2.001-6.22,1.581-8.613-0.751c-2.386-2.333-2.516-6.212-0.126-8.858
					C151.316,230.201,155.403,230.325,157.847,233.314z"/>
				<path style="fill:#4E3217;" d="M100.508,249.909c-4.04,4.471-3.822,11.006,0.205,14.948c4.034,3.933,10.428,4.635,14.543,1.268
					c4.116-3.362,4.411-10.397,0.3-15.422C111.436,245.678,104.541,245.465,100.508,249.909z M112.526,253.585
					c2.442,2.977,2.265,7.148-0.17,9.138c-2.444,1.998-6.227,1.577-8.622-0.752c-2.386-2.332-2.51-6.211-0.116-8.85
					C106.005,250.479,110.093,250.611,112.526,253.585z"/>
				<path style="fill:#4E3217;" d="M72.504,209.36c-4.028,4.46-3.822,11.006,0.207,14.949c4.042,3.927,10.424,4.632,14.549,1.259
					c4.116-3.356,4.41-10.399,0.289-15.42C83.438,205.128,76.538,204.907,72.504,209.36z M84.527,213.036
					c2.442,2.975,2.264,7.143-0.176,9.135c-2.435,2.003-6.223,1.581-8.615-0.747c-2.391-2.333-2.51-6.216-0.121-8.858
					C78.007,209.927,82.089,210.057,84.527,213.036z"/>
				<path style="fill:#4E3217;" d="M186.302,164.451c-4.038,4.454-3.824,10.999,0.199,14.936c4.042,3.939,10.423,4.64,14.542,1.266
					c4.118-3.359,4.418-10.391,0.297-15.416C197.223,160.212,190.327,159.995,186.302,164.451z M198.316,168.115
					c2.442,2.981,2.267,7.148-0.173,9.147c-2.444,1.996-6.224,1.578-8.621-0.752c-2.384-2.338-2.515-6.217-0.118-8.86
					C191.792,165.013,195.875,165.141,198.316,168.115z"/>
				<path style="fill:#4E3217;" d="M191.576,209.098c1.056,1.027,2.276,1.83,3.572,2.402l1.044-4.147
					c-0.571-0.313-1.118-0.679-1.599-1.143c-2.384-2.337-2.508-6.216-0.113-8.856c1.257-1.391,2.986-2.003,4.699-1.844l1.093-4.337
					c-3.194-0.627-6.54,0.365-8.9,2.971C187.339,198.605,187.554,205.151,191.576,209.098z"/>
				<path style="fill:#4E3217;" d="M109.954,182.819c2.749-2.244,3.781-6.136,2.942-9.968l-4.082,0.794
					c0.448,2.226-0.17,4.472-1.771,5.777c-2.447,1.993-6.221,1.574-8.624-0.751c-0.782-0.769-1.292-1.707-1.581-2.703l-4.199,0.816
					c0.469,1.769,1.386,3.429,2.76,4.773C99.439,185.493,105.828,186.194,109.954,182.819z"/>
			</g>
			<path style="fill:#009444;" d="M155.35,259.122c0,0-4.561,3.046-1.999,2.869c0,0-5.276,3.08-2.833,3.12
				c0,0-3.932,5.799,1.69,1.846c0,0,0.354,2.133,3.169-3.015c0,0,0.721,2.105,2.788-2.881c0,0,1.815,1.571,0.813-3.684
				c0.568-0.941,1.035-1.947,1.269-2.944l-0.666-0.167c-0.21,0.863-0.619,1.755-1.107,2.601
				C157.083,257.27,152.533,258.69,155.35,259.122z"/>
			<path style="fill:#009444;" d="M144.086,288.067c0,0,5.326,1.279,3.419-0.498c0,0,5.831,1.779,4.159-0.058
				c0,0,6.835-1.077,0.139-2.507c0,0,1.265-1.741-4.327-0.269c0,0,0.985-1.99-3.974-0.086c0,0-0.145-2.414-3.163,1.94
				c-1.056,0.239-2.096,0.575-2.967,1.092l0.348,0.611c0.756-0.443,1.673-0.758,2.614-0.974
				C141.579,288.068,145.733,290.458,144.086,288.067z"/>
			<path style="fill:#FFFFFF;" d="M116.555,226.638c-6.685-7.349-6.775-18.548-0.545-25.951c-0.556,0.421-1.102,0.88-1.624,1.378
				c-7.673,7.306-8.083,19.618-0.914,27.508c7.173,7.879,19.208,8.347,26.887,1.044c0.524-0.501,1.007-1.019,1.462-1.558
				C134.151,234.884,123.239,233.98,116.555,226.638z"/>
			<path style="fill:#FFFFFF;" d="M187.128,177.03c6.708,9.74,5.053,22.905-3.435,30.579c0.723-0.411,1.431-0.854,2.128-1.35
				c10.172-7.329,12.586-21.716,5.389-32.163c-7.196-10.439-21.28-12.961-31.453-5.638c-0.692,0.494-1.346,1.028-1.96,1.595
				C167.723,164.458,180.412,167.31,187.128,177.03z"/>
			<path style="fill:#FFFFFF;" d="M137.589,202.023c-6.818-9.653-5.307-22.836,3.108-30.602c-0.72,0.415-1.431,0.869-2.113,1.375
				c-10.103,7.434-12.358,21.857-5.052,32.215c7.3,10.358,21.411,12.731,31.512,5.294c0.679-0.502,1.325-1.04,1.94-1.61
				C157.108,214.391,144.4,211.679,137.589,202.023z"/>
			<path style="fill:#FFFFFF;" d="M106.319,267.294c-6.807-9.647-5.299-22.835,3.115-30.6c-0.726,0.421-1.428,0.87-2.116,1.379
				c-10.099,7.434-12.358,21.858-5.052,32.213c7.312,10.361,21.412,12.73,31.508,5.295c0.688-0.511,1.336-1.044,1.952-1.606
				C125.849,279.671,113.131,276.953,106.319,267.294z"/>
			<path style="fill:#FFFFFF;" d="M165.239,272.765c-8.605,7.81-21.659,7.526-30.237-0.255c0.493,0.685,1.015,1.356,1.594,2.005
				c8.455,9.524,22.806,10.45,32.047,2.077c9.242-8.385,9.876-22.895,1.423-32.423c-0.577-0.647-1.181-1.255-1.796-1.819
				C174.996,251.805,173.855,264.952,165.239,272.765z"/>
			<path style="fill:#8C3721;" d="M134.552,255.458c7.883-5.482,18.619-3.904,25.167,2.329c6.475,6.293,7.194,17.306,0.514,25.904
				c-6.639,8.568-19.616,9.13-27.339-0.262C125.17,274.051,126.7,260.904,134.552,255.458z"/>
			<g>
				<g>
					<g>
						<path style="fill:#D07B55;" d="M133.773,256.201c7.876-5.484,18.618-3.905,25.166,2.328c6.474,6.292,7.191,17.308,0.51,25.901
							c-0.534,0.693-1.115,1.326-1.726,1.915c0.738-0.67,1.439-1.422,2.075-2.246c6.684-8.589,5.959-19.611-0.515-25.895
							c-6.546-6.232-17.284-7.825-25.169-2.332c-0.608,0.428-1.177,0.9-1.713,1.417
							C132.836,256.897,133.285,256.534,133.773,256.201z"/>
					</g>
					<g>
						<path style="fill:#D07B55;" d="M133.482,282.253c-6.525-7.931-5.94-18.76-0.278-24.456
							c-6.045,5.572-6.824,16.729-0.141,24.853c6.621,8.054,17.402,8.223,23.875,1.948
							C150.428,290.472,139.96,290.134,133.482,282.253z"/>
					</g>
				</g>
			</g>
			<path style="fill:#D07B55;" d="M138.87,261.072c4.784-3.329,11.312-2.368,15.293,1.421c3.936,3.82,4.372,10.514,0.316,15.738
				c-4.038,5.203-11.921,5.546-16.616-0.156C133.174,272.375,134.101,264.384,138.87,261.072z"/>
			<path style="fill:#CF5C3A;" d="M132.973,260.224c-5.221,8.17-3.7,17.862,2.53,22.885c6.303,4.964,15.928,5.463,22.455-0.06
				c6.506-5.48,6.804-17.247-0.78-24.903C149.584,250.481,138.148,252.08,132.973,260.224z M155.305,260.42
				c6.237,6.298,6,15.974,0.645,20.484c-5.375,4.543-13.282,4.136-18.47,0.045c-5.129-4.123-6.375-12.104-2.092-18.825
				C139.655,255.423,149.067,254.119,155.305,260.42z"/>
			<path style="fill:#8C3721;" d="M98.803,206.907c10.369-7.232,24.516-5.148,33.148,3.057c8.524,8.285,9.471,22.797,0.671,34.125
				c-8.744,11.282-25.839,12.023-36.01-0.35C86.445,231.391,88.456,214.072,98.803,206.907z"/>
			<g>
				<g>
					<g>
						<path style="fill:#D07B55;" d="M97.767,207.879c10.375-7.237,24.518-5.143,33.151,3.064
							c8.523,8.285,9.474,22.799,0.669,34.117c-0.707,0.91-1.468,1.747-2.272,2.518c0.979-0.883,1.891-1.87,2.728-2.948
							c8.802-11.324,7.853-25.843-0.667-34.116c-8.63-8.214-22.776-10.299-33.151-3.076c-0.802,0.563-1.556,1.19-2.258,1.872
							C96.53,208.797,97.13,208.32,97.767,207.879z"/>
					</g>
					<g>
						<path style="fill:#D07B55;" d="M97.387,242.182c-8.596-10.439-7.821-24.696-0.369-32.2c-7.96,7.35-8.988,22.029-0.186,32.721
							c8.727,10.624,22.922,10.841,31.437,2.566C119.705,253.008,105.918,252.571,97.387,242.182z"/>
					</g>
				</g>
			</g>
			<path style="fill:#D07B55;" d="M104.489,214.302c6.299-4.388,14.892-3.127,20.138,1.865c5.178,5.031,5.753,13.846,0.408,20.722
				c-5.313,6.857-15.698,7.312-21.88-0.21C96.975,229.173,98.201,218.657,104.489,214.302z"/>
			<path style="fill:#CF5C3A;" d="M96.716,213.175c-6.875,10.764-4.871,23.523,3.336,30.141c8.297,6.541,20.973,7.2,29.573-0.08
				c8.571-7.215,8.957-22.707-1.027-32.788C118.604,200.346,103.537,202.45,96.716,213.175z M126.127,213.439
				c8.222,8.293,7.908,21.035,0.848,26.971c-7.073,5.98-17.499,5.453-24.323,0.063c-6.748-5.438-8.399-15.938-2.745-24.79
				C105.518,206.855,117.908,205.13,126.127,213.439z"/>
			<path style="fill:#8C3721;" d="M148.005,172.929c10.372-7.229,24.518-5.142,33.145,3.068c8.528,8.282,9.477,22.792,0.677,34.113
				c-8.745,11.289-25.839,12.027-36.011-0.349C135.646,197.415,137.664,180.103,148.005,172.929z"/>
			<g>
				<g>
					<g>
						<path style="fill:#D07B55;" d="M146.972,173.91c10.382-7.227,24.522-5.145,33.146,3.063
							c8.524,8.282,9.473,22.797,0.669,34.112c-0.703,0.915-1.461,1.751-2.272,2.519c0.981-0.879,1.9-1.866,2.734-2.953
							c8.805-11.313,7.854-25.834-0.672-34.114c-8.627-8.21-22.767-10.296-33.148-3.064c-0.808,0.556-1.557,1.183-2.259,1.865
							C145.736,174.823,146.338,174.348,146.972,173.91z"/>
					</g>
					<g>
						<path style="fill:#D07B55;" d="M146.588,208.215c-8.594-10.444-7.813-24.702-0.364-32.206
							c-7.957,7.348-8.985,22.035-0.185,32.727c8.724,10.616,22.921,10.834,31.442,2.563
							C168.905,219.038,155.127,218.598,146.588,208.215z"/>
					</g>
				</g>
			</g>
			<path style="fill:#D07B55;" d="M153.686,180.328c6.308-4.391,14.9-3.125,20.146,1.869c5.18,5.032,5.755,13.844,0.41,20.723
				c-5.313,6.864-15.7,7.311-21.877-0.205C146.176,195.202,147.408,184.692,153.686,180.328z"/>
			<path style="fill:#CF5C3A;" d="M145.919,179.198c-6.862,10.769-4.864,23.532,3.341,30.14c8.292,6.547,20.969,7.205,29.57-0.07
				c8.566-7.223,8.959-22.71-1.037-32.793C167.805,166.381,152.747,168.478,145.919,179.198z M175.335,179.459
				c8.221,8.297,7.9,21.042,0.847,26.98c-7.079,5.99-17.501,5.448-24.329,0.063c-6.746-5.439-8.398-15.937-2.74-24.795
				C154.724,172.885,167.116,171.159,175.335,179.459z"/>
			<path style="fill:#CF5C3A;" d="M95.797,181.717c2.218,11.868,13.252,19.895,24.976,18.02
				c11.731-1.888,19.769-12.971,18.24-24.942L95.797,181.717z"/>
			<path style="fill:#F15A29;" d="M97.528,181.441c1.616,8.986,11.563,16.143,22.846,15.581
				c11.403-0.553,18.765-10.552,16.926-21.959L97.528,181.441z"/>
			<path style="fill:#D39F68;" d="M129.28,179.109c3.082,0.202,4.794-1.312,5.268-3.61l-24.397,3.917
				c0.102,0.353-1.121,0.68-4.252,1.18c-5.844,0.932-7.438,3.783-2.825,9.579c4.605,5.794,8.965,4.723,9.909,2.399
				c0.932-2.326,2.389-6.555,4.431-0.229c2.043,6.317,6.546,3.303,12.437-1.338c5.877-4.649-0.071-6.442-2.079-7.205
				C125.768,183.029,121.759,178.592,129.28,179.109z"/>
			<path style="fill:#D78150;" d="M112.144,179.096c0.002,0.091,0.005,0.186-0.001,0.277c-0.124,1.577-1.861,1.859-5.333,2.408
				c-2.113,0.35-3.502,0.95-3.799,1.672c-0.159,0.39-0.285,1.588,2.031,4.301c2.754,3.226,4.902,3.162,5.49,3.067
				c0.55-0.085,0.967-0.346,1.122-0.694l0.128-0.294c0.71-1.619,1.518-3.458,3.181-3.715c2.338-0.383,3.34,2.57,3.758,3.829
				c0.777,2.296,1.719,2.148,2.283,2.059c1.764-0.281,4.411-2.15,6.976-4.049c1.871-1.378,1.795-2.004,1.793-2.006
				c-0.045-0.288-0.591-0.795-2.923-1.566l-0.357-0.126c-1.435-0.487-3.873-2.378-3.643-4.391c0.07-0.607,0.496-2.063,3.041-2.466
				c0.751-0.123,1.647-0.156,2.735-0.094c1.562,0.075,2.6-0.362,3.11-1.349L112.144,179.096z"/>
			<g>
				<path style="fill:#FCC267;" d="M111.147,179.849c0,0,0.214,0.253,0.422,0.571c0.105,0.146,0.211,0.325,0.354,0.415
					c0.143,0.087,0.346,0.09,0.587-0.153c0.227-0.244,0.28-0.503,0.221-0.677c-0.042-0.174-0.206-0.295-0.387-0.349
					C111.969,179.555,111.458,179.699,111.147,179.849z"/>
				<path style="fill:#FCC267;" d="M110.522,180.951l-0.366,0.522c-0.166,0.265-0.292,0.556,0.102,0.662
					c0.415,0.101,0.694-0.154,0.728-0.432C111.029,181.411,110.816,181.126,110.522,180.951z"/>
				<path style="fill:#FCC267;" d="M108.686,181.287c0.026-0.005-1.057,1.5-0.05,1.612c0.513,0.046,0.694-0.259,0.646-0.607
					C109.237,181.934,108.99,181.52,108.686,181.287z"/>
				<path style="fill:#FCC267;" d="M106.152,181.305c0.011,0-0.264,0.519-0.328,1.039c-0.038,0.517,0.092,1.032,0.905,1.02
					C108.359,183.336,106.151,181.305,106.152,181.305z"/>
				<path style="fill:#FCC267;" d="M104.073,182.196c-0.002,0.006-0.127,0.346-0.109,0.663c0.023,0.317,0.164,0.598,0.624,0.534
					c0.458-0.061,0.354-0.357,0.109-0.653C104.46,182.451,104.073,182.196,104.073,182.196z"/>
				<path style="fill:#FCC267;" d="M102.279,183.073c-0.008,0.002-0.077,0.348,0.001,0.649c0.08,0.302,0.33,0.467,0.544,0.426
					c0.238-0.032,0.275-0.188,0.176-0.408C102.89,183.523,102.65,183.246,102.279,183.073z"/>
				<path style="fill:#FCC267;" d="M101.721,185.613c0,0,0.32,0.277,0.68,0.351c0.375,0.089,0.737-0.002,0.886-0.41
					c0.155-0.39-0.088-0.453-0.461-0.447C102.442,185.114,101.933,185.255,101.721,185.613z"/>
				<path style="fill:#FCC267;" d="M102.581,187.316c-0.003,0.007,0.293,0.253,0.586,0.376c0.298,0.129,0.586,0.131,0.59-0.257
					c0.015-0.382-0.191-0.569-0.454-0.58C103.044,186.839,102.734,186.994,102.581,187.316z"/>
				<path style="fill:#FCC267;" d="M103.556,189.244c0,0,0.447,0.077,0.854,0.014c0.4-0.055,0.744-0.249,0.568-0.691
					C104.646,187.66,103.679,188.451,103.556,189.244z"/>
				<path style="fill:#FCC267;" d="M104.345,190.84c0,0,0.593-0.055,1.032-0.305c0.447-0.263,0.742-0.683,0.319-1.318
					c-0.41-0.651-0.77-0.289-1.019,0.279C104.429,190.064,104.343,190.84,104.345,190.84z"/>
				<path style="fill:#FCC267;" d="M106.312,192.071c0,0,0.339-0.102,0.575-0.303c0.235-0.2,0.368-0.487,0.039-0.82
					c-0.311-0.345-0.483-0.083-0.566,0.282C106.274,191.599,106.312,192.071,106.312,192.071z"/>
				<path style="fill:#FCC267;" d="M107.987,193.036c0,0,0.301-0.114,0.514-0.32c0.211-0.204,0.339-0.475,0.146-0.681
					c-0.191-0.219-0.355-0.173-0.482,0.037C108.044,192.278,107.958,192.64,107.987,193.036z"/>
				<path style="fill:#FCC267;" d="M110.302,193.192c0.005,0.009,0.353-0.333,0.37-0.717c0.046-0.388-0.188-0.683-0.478-0.851
					c-0.134-0.092-0.177-0.102-0.199-0.03c-0.03,0.077-0.073,0.234-0.08,0.426C109.892,192.402,109.941,192.945,110.302,193.192z"/>
				<path style="fill:#FCC267;" d="M111.853,191.72c-0.012,0.003,0.072-1.479-0.595-1.064
					C110.589,191.095,111.157,191.858,111.853,191.72z"/>
				<path style="fill:#FCC267;" d="M112.905,190.013c0,0-0.133-0.428-0.31-0.798c-0.183-0.369-0.447-0.693-0.84-0.307
					C110.99,189.707,112.188,190.18,112.905,190.013z"/>
				<path style="fill:#FCC267;" d="M114.478,188.715c-0.007-0.003-0.058-0.511-0.068-1.035c-0.017-0.263-0.053-0.513-0.228-0.677
					c-0.17-0.154-0.541-0.223-1.018,0.047c-0.47,0.28-0.548,0.542-0.465,0.711c0.096,0.172,0.352,0.287,0.638,0.399
					c0.285,0.112,0.592,0.222,0.805,0.339C114.355,188.614,114.478,188.715,114.478,188.715z"/>
				<path style="fill:#FCC267;" d="M115.69,188.238c-0.007-0.002,0.243-0.202,0.464-0.431c0.197-0.21,0.378-0.54-0.173-0.835
					c-0.287-0.121-0.443-0.075-0.493,0.029c-0.058,0.107-0.014,0.28,0.031,0.465C115.631,187.828,115.695,188.235,115.69,188.238z"
					/>
				<path style="fill:#FCC267;" d="M116.728,189.135c-0.002,0,0.281,0.013,0.568-0.015c0.279-0.03,0.575-0.11,0.523-0.443
					c-0.058-0.339-0.255-0.406-0.459-0.278C117.154,188.514,116.932,188.806,116.728,189.135z"/>
				<path style="fill:#FCC267;" d="M117.756,190.706c0,0,0.329,0.187,0.675,0.279c0.362,0.095,0.759,0.099,0.889-0.395
					c0.128-0.485-0.194-0.649-0.565-0.574C118.383,190.09,117.939,190.378,117.756,190.706z"/>
				<path style="fill:#FCC267;" d="M118.433,192.342c-0.006,0.008,0.241,0.302,0.522,0.472c0.277,0.17,0.557,0.189,0.619-0.175
					c0.079-0.366-0.096-0.564-0.344-0.625C118.979,191.963,118.635,192.044,118.433,192.342z"/>
				<path style="fill:#FCC267;" d="M119.483,194.497c0,0,0.153,0.016,0.341-0.015c0.188-0.037,0.412-0.135,0.555-0.282
					c0.301-0.316,0.249-0.714,0.137-0.894c-0.056-0.1-0.093-0.109-0.209-0.096c-0.106,0.023-0.246,0.085-0.386,0.193
					C119.646,193.611,119.354,194.024,119.483,194.497z"/>
				<path style="fill:#FCC267;" d="M122.764,194.816c-0.001-0.008,0.16-0.596,0.065-1.105c-0.088-0.525-0.395-0.927-1.086-0.773
					c-0.344,0.073-0.447,0.2-0.445,0.395c0.006,0.194,0.132,0.439,0.342,0.673C122.043,194.478,122.764,194.816,122.764,194.816z"/>
				<path style="fill:#FCC267;" d="M124.537,193.363c0.013-0.007,0.097-1.408-0.789-1.009c-0.444,0.18-0.256,0.437,0.051,0.648
					C124.109,193.212,124.537,193.363,124.537,193.363z"/>
				<path style="fill:#FCC267;" d="M126.029,192.342c0.004-0.004,0.16-1.228-0.442-1.12
					C124.975,191.318,125.372,191.938,126.029,192.342z"/>
				<path style="fill:#FCC267;" d="M127.551,190.976c0.002,0.001,0.398-1.513-0.555-1.503
					C126.056,189.473,126.817,190.792,127.551,190.976z"/>
				<path style="fill:#FCC267;" d="M128.888,189.791c0,0,0.198-0.321,0.269-0.638c0.079-0.326,0.021-0.612-0.349-0.559
					c-0.367,0.039-0.506,0.27-0.482,0.536C128.349,189.395,128.548,189.689,128.888,189.791z"/>
				<path style="fill:#FCC267;" d="M130.607,188.33c0,0-0.016-0.138-0.062-0.318c-0.052-0.181-0.144-0.429-0.32-0.563
					c-0.204-0.091-0.379,0.035-0.507,0.12c-0.053,0.049-0.115,0.1-0.184,0.099c-0.015,0.004-0.049-0.031-0.069-0.072
					c-0.011-0.03-0.012,0.008-0.019,0.011l-0.003,0.01l-0.021-0.118c-0.007-0.027-0.008-0.027-0.011-0.044
					c-0.025-0.063-0.043-0.074-0.058-0.073c-0.075,0.021-0.117,0.149-0.102,0.263c0.027,0.123,0.108,0.261,0.234,0.382
					C129.745,188.273,130.191,188.474,130.607,188.33z"/>
				<path style="fill:#FCC267;" d="M129.056,185.25c-0.002-0.001-0.524,0.267-0.838,0.675c-0.338,0.397-0.451,0.908,0.17,1.343
					c0.303,0.219,0.484,0.212,0.614,0.072c0.125-0.131,0.209-0.404,0.225-0.716C129.27,186.001,129.057,185.248,129.056,185.25z"/>
				<path style="fill:#FCC267;" d="M126.922,184.809c0.001,0-0.272,0.191-0.487,0.413c-0.203,0.232-0.343,0.547,0.14,0.832
					C127.472,186.555,126.859,184.8,126.922,184.809z"/>
				<path style="fill:#FCC267;" d="M125.571,183.962c0,0-0.284,0.054-0.548,0.165c-0.261,0.113-0.511,0.284-0.372,0.585
					C124.947,185.313,125.383,184.711,125.571,183.962z"/>
				<path style="fill:#FCC267;" d="M124.156,182.761c0,0-0.357-0.082-0.728-0.107c-0.357-0.019-0.77,0.021-0.78,0.58
					c0.011,0.558,0.384,0.642,0.721,0.467C123.707,183.523,124.052,183.113,124.156,182.761z"/>
				<path style="fill:#FCC267;" d="M123.365,181.38l-0.38-0.502c-0.188-0.235-0.396-0.502-0.64-0.121
					c-0.224,0.394-0.07,0.765,0.19,0.864C122.797,181.738,123.12,181.628,123.365,181.38z"/>
				<path style="fill:#FCC267;" d="M123.798,179.834c-0.004,0.008-0.159-0.377-0.278-0.777c-0.127-0.38-0.291-0.803-0.805-0.403
					c-0.242,0.213-0.341,0.441-0.323,0.627c0.016,0.186,0.124,0.315,0.271,0.396C122.98,179.841,123.456,179.85,123.798,179.834z"/>
				<path style="fill:#FCC267;" d="M125.502,179.059c-0.005,0.001,0.128-0.53,0.169-1.044c0.013-0.26-0.01-0.517-0.158-0.696
					c-0.156-0.191-0.428-0.298-0.905-0.19c-0.482,0.12-0.646,0.34-0.609,0.536c0.03,0.193,0.254,0.374,0.495,0.577
					C124.99,178.607,125.506,179.06,125.502,179.059z"/>
				<path style="fill:#FCC267;" d="M127.269,178.385c-0.002-0.005,0.18-0.287,0.262-0.597c0.081-0.305,0.052-0.631-0.463-0.688
					c-0.518-0.039-0.45,0.279-0.265,0.609C126.99,178.037,127.269,178.385,127.269,178.385z"/>
				<path style="fill:#FCC267;" d="M128.968,178.428c0,0,0.234-0.216,0.376-0.474c0.14-0.264,0.184-0.562-0.071-0.698
					C128.779,176.965,128.674,177.689,128.968,178.428z"/>
				<path style="fill:#FCC267;" d="M131.182,177.89c0,0,0.232-0.392,0.198-0.765c-0.009-0.395-0.266-0.68-0.606-0.773
					c-0.325-0.118-0.329,0.111-0.271,0.505C130.574,177.239,130.796,177.732,131.182,177.89z"/>
			</g>
			<path style="fill:#CF5C3A;" d="M185.571,241.827c2.588-11.766-4.432-23.61-15.939-26.668
				c-11.504-3.055-23.208,3.817-26.454,15.406L185.571,241.827z"/>
			<path style="fill:#D2845A;" d="M183.875,241.382c2.008-8.887-4.337-19.492-14.931-23.576
				c-10.687-4.135-21.341,2.015-24.096,13.209L183.875,241.382z"/>
			<path style="fill:#D39F68;" d="M153.79,230.573c-2.753-1.443-4.913-0.75-6.245,1.158l23.944,6.368
				c0.04-0.376,1.283-0.177,4.364,0.647c5.73,1.526,8.309-0.441,6.33-7.616c-1.984-7.18-6.405-7.988-8.172-6.243
				c-1.764,1.758-4.75,5.029-4.163-1.599c0.582-6.624-4.733-5.681-11.947-3.828c-7.215,1.861-2.446,5.924-0.899,7.44
				C158.544,228.418,160.503,234.112,153.79,230.573z"/>
			<path style="fill:#D78150;" d="M169.536,237.568c0.027-0.08,0.066-0.162,0.109-0.246c0.725-1.398,2.439-0.936,5.836-0.04
				c2.076,0.552,3.589,0.567,4.139,0.022c0.299-0.29,0.879-1.334-0.192-4.765c-1.276-4.079-3.269-4.888-3.853-5.042
				c-0.538-0.146-1.025-0.082-1.302,0.175l-0.23,0.213c-1.284,1.192-2.737,2.543-4.369,2.114c-2.3-0.618-2.064-3.717-1.959-5.052
				c0.175-2.408-0.746-2.659-1.303-2.804c-1.719-0.459-4.89,0.176-7.977,0.86c-2.253,0.492-2.431,1.104-2.432,1.114
				c-0.075,0.279,0.233,0.965,2.069,2.623l0.279,0.254c1.131,1.035,2.641,3.759,1.648,5.514c-0.298,0.523-1.269,1.671-3.761,1.015
				c-0.739-0.199-1.575-0.533-2.554-1.031c-1.397-0.7-2.528-0.718-3.367-0.034L169.536,237.568z"/>
			<g>
				<path style="fill:#FCC267;" d="M170.74,237.291c0.004-0.006-0.095-0.314-0.165-0.69c-0.04-0.193-0.069-0.384-0.162-0.528
					c-0.097-0.133-0.28-0.228-0.594-0.098c-0.31,0.125-0.458,0.346-0.469,0.531c-0.026,0.181,0.066,0.35,0.214,0.467
					C169.876,237.224,170.399,237.296,170.74,237.291z"/>
				<path style="fill:#FCC267;" d="M171.742,236.529l0.545-0.324c0.255-0.168,0.483-0.386,0.162-0.648
					c-0.342-0.249-0.698-0.138-0.84,0.105C171.462,235.911,171.541,236.253,171.742,236.529z"/>
				<path style="fill:#FCC267;" d="M173.558,236.982c-0.02-0.02,1.557-0.953,0.675-1.448c-0.444-0.259-0.734-0.054-0.827,0.286
					C173.305,236.166,173.374,236.643,173.558,236.982z"/>
				<path style="fill:#FCC267;" d="M175.898,237.987c-0.003,0.002,0.447-0.363,0.699-0.813c0.241-0.459,0.324-0.974-0.432-1.301
					C174.661,235.227,175.902,237.99,175.898,237.987z"/>
				<path style="fill:#FCC267;" d="M178.159,238.021c0,0,0.25-0.266,0.354-0.558c0.103-0.3,0.079-0.617-0.364-0.739
					c-0.449-0.135-0.47,0.178-0.357,0.543C177.894,237.627,178.156,238.016,178.159,238.021z"/>
				<path style="fill:#FCC267;" d="M180.149,237.952c0,0,0.197-0.291,0.249-0.595c0.038-0.312-0.118-0.558-0.337-0.613
					c-0.23-0.063-0.328,0.063-0.312,0.306C179.753,237.292,179.871,237.648,180.149,237.952z"/>
				<path style="fill:#FCC267;" d="M181.645,235.856c0.008-0.009-0.188-0.389-0.493-0.609c-0.302-0.223-0.667-0.3-0.963,0.021
					c-0.297,0.296-0.106,0.45,0.249,0.602C180.789,236.019,181.313,236.098,181.645,235.856z"/>
				<path style="fill:#FCC267;" d="M181.519,233.936c0,0-0.167-0.34-0.387-0.575c-0.221-0.238-0.486-0.36-0.654-0.011
					c-0.157,0.349-0.033,0.6,0.191,0.722C180.901,234.187,181.254,234.176,181.519,233.936z"/>
				<path style="fill:#FCC267;" d="M181.373,231.788c0.01-0.011-0.382-0.258-0.777-0.373c-0.392-0.107-0.783-0.074-0.793,0.408
					C179.755,232.787,180.953,232.455,181.373,231.788z"/>
				<path style="fill:#FCC267;" d="M181.268,229.992c0.002-0.002-0.561-0.188-1.067-0.13c-0.507,0.057-0.944,0.308-0.803,1.078
					c0.12,0.763,0.589,0.576,1.043,0.151C180.887,230.677,181.27,230,181.268,229.992z"/>
				<path style="fill:#FCC267;" d="M179.948,228.067c0,0-0.358-0.046-0.658,0.041c-0.292,0.096-0.515,0.3-0.357,0.738
					c0.153,0.443,0.419,0.271,0.646-0.025C179.795,228.517,179.949,228.07,179.948,228.067z"/>
				<path style="fill:#FCC267;" d="M178.78,226.5c0,0-0.326-0.015-0.598,0.091c-0.275,0.094-0.499,0.288-0.396,0.559
					c0.092,0.283,0.258,0.298,0.45,0.156C178.431,227.167,178.651,226.875,178.78,226.5z"/>
				<path style="fill:#FCC267;" d="M176.713,225.417c0.001-0.015-0.452,0.161-0.619,0.501c-0.194,0.344-0.087,0.71,0.105,0.981
					c0.089,0.141,0.122,0.168,0.175,0.102c0.048-0.059,0.152-0.185,0.236-0.357C176.781,226.309,176.949,225.783,176.713,225.417z"
					/>
				<path style="fill:#FCC267;" d="M174.713,226.141c0.015,0.002-0.64,1.317,0.136,1.205
					C175.631,227.22,175.399,226.292,174.713,226.141z"/>
				<path style="fill:#FCC267;" d="M173.084,227.268c0,0-0.045,0.443-0.026,0.855c0.023,0.418,0.135,0.821,0.651,0.63
					C174.726,228.327,173.806,227.406,173.084,227.268z"/>
				<path style="fill:#FCC267;" d="M171.131,227.814c0.007,0.009-0.149,0.495-0.34,0.978c-0.084,0.235-0.151,0.49-0.056,0.715
					c0.099,0.218,0.411,0.414,0.959,0.372c0.538-0.065,0.712-0.279,0.698-0.465c-0.009-0.2-0.208-0.403-0.424-0.626
					c-0.23-0.209-0.464-0.44-0.61-0.637C171.204,227.963,171.131,227.814,171.131,227.814z"/>
				<path style="fill:#FCC267;" d="M169.828,227.759c0.009,0.005-0.301,0.088-0.585,0.201c-0.265,0.106-0.563,0.347-0.168,0.84
					c0.209,0.224,0.377,0.254,0.466,0.17c0.091-0.074,0.11-0.244,0.146-0.439C169.723,228.16,169.826,227.759,169.828,227.759z"/>
				<path style="fill:#FCC267;" d="M169.227,226.512c-0.001,0-0.255-0.124-0.525-0.22c-0.27-0.084-0.567-0.119-0.654,0.195
					c-0.081,0.338,0.078,0.474,0.313,0.447C168.597,226.909,168.916,226.725,169.227,226.512z"/>
				<path style="fill:#FCC267;" d="M168.901,224.664c-0.006-0.003-0.232-0.306-0.521-0.541c-0.288-0.235-0.659-0.397-0.972,0.002
					c-0.302,0.403-0.078,0.677,0.299,0.758C168.084,224.964,168.607,224.884,168.901,224.664z"/>
				<path style="fill:#FCC267;" d="M168.909,222.88c0.003,0.007-0.097-0.371-0.3-0.632c-0.186-0.282-0.434-0.406-0.641-0.101
					c-0.199,0.294-0.122,0.549,0.085,0.709C168.267,223.011,168.607,223.071,168.909,222.88z"/>
				<path style="fill:#FCC267;" d="M168.777,220.482c0.005,0.01-0.13-0.079-0.319-0.12c-0.184-0.05-0.42-0.046-0.611,0.024
					c-0.405,0.167-0.505,0.551-0.48,0.766c0.016,0.112,0.046,0.138,0.159,0.174c0.105,0.024,0.263,0.016,0.436-0.02
					C168.293,221.227,168.71,220.958,168.777,220.482z"/>
				<path style="fill:#FCC267;" d="M165.892,218.857c-0.005,0.004-0.372,0.47-0.493,0.989c-0.122,0.507,0.003,1.008,0.7,1.142
					c0.343,0.078,0.49,0.002,0.57-0.182c0.068-0.178,0.046-0.455-0.057-0.75C166.421,219.462,165.897,218.855,165.892,218.857z"/>
				<path style="fill:#FCC267;" d="M163.698,219.458c-0.012,0.012-0.634,1.261,0.331,1.255c0.48,0.006,0.407-0.302,0.208-0.622
					C164.034,219.77,163.698,219.458,163.698,219.458z"/>
				<path style="fill:#FCC267;" d="M161.93,219.789c-0.008-0.007-0.619,1.059-0.024,1.206
					C162.501,221.164,162.38,220.433,161.93,219.789z"/>
				<path style="fill:#FCC267;" d="M159.996,220.41c0.001,0.008-0.95,1.231-0.074,1.616
					C160.785,222.403,160.601,220.89,159.996,220.41z"/>
				<path style="fill:#FCC267;" d="M158.311,220.951c0,0-0.309,0.226-0.498,0.483c-0.2,0.26-0.259,0.546,0.105,0.655
					c0.352,0.116,0.568-0.04,0.648-0.298C158.645,221.541,158.587,221.189,158.311,220.951z"/>
				<path style="fill:#FCC267;" d="M156.166,221.585c0.002,0.011-0.046,0.137-0.072,0.327c-0.019,0.189-0.032,0.453,0.084,0.647
					c0.143,0.163,0.352,0.122,0.503,0.092c0.08-0.008,0.143-0.041,0.209-0.015c0.012-0.001,0.034,0.047,0.034,0.099
					c0.004,0.03,0.013-0.004,0.021-0.001l0.01-0.006l-0.025,0.115c-0.004,0.02-0.007,0.031-0.011,0.044
					c-0.003,0.068,0.006,0.077,0.023,0.086c0.084,0.014,0.17-0.085,0.194-0.197c0.03-0.127,0.01-0.285-0.061-0.453
					C156.935,222.006,156.599,221.635,156.166,221.585z"/>
				<path style="fill:#FCC267;" d="M156.388,225.049c0,0,0.585-0.031,1.037-0.276c0.456-0.233,0.759-0.651,0.363-1.299
					c-0.193-0.326-0.359-0.396-0.537-0.321c-0.174,0.076-0.351,0.285-0.487,0.564C156.483,224.273,156.388,225.049,156.388,225.049z
					"/>
				<path style="fill:#FCC267;" d="M158.177,226.318c-0.005-0.004,0.325-0.053,0.606-0.176c0.274-0.124,0.53-0.358,0.195-0.819
					C158.346,224.503,158.231,226.358,158.177,226.318z"/>
				<path style="fill:#FCC267;" d="M159.087,227.646c0,0,0.283,0.066,0.574,0.075c0.276,0.004,0.574-0.051,0.574-0.372
					C160.183,226.662,159.558,227.042,159.087,227.646z"/>
				<path style="fill:#FCC267;" d="M159.923,229.325c0,0,0.292,0.219,0.624,0.397c0.325,0.16,0.725,0.289,0.941-0.218
					c0.209-0.511-0.099-0.744-0.48-0.714C160.63,228.803,160.158,229.048,159.923,229.325z"/>
				<path style="fill:#FCC267;" d="M160.123,230.906l0.146,0.627c0.077,0.289,0.163,0.615,0.536,0.374
					c0.367-0.276,0.356-0.683,0.165-0.884C160.78,230.813,160.434,230.79,160.123,230.906z"/>
				<path style="fill:#FCC267;" d="M159.111,232.152c0.009-0.002-0.001,0.407-0.045,0.822c-0.041,0.405-0.047,0.858,0.575,0.701
					c0.309-0.102,0.482-0.274,0.545-0.438c0.055-0.176,0.012-0.345-0.1-0.483C159.869,232.471,159.433,232.268,159.111,232.152z"/>
				<path style="fill:#FCC267;" d="M157.244,232.165c0.008,0.005-0.329,0.436-0.565,0.89c-0.112,0.234-0.186,0.479-0.124,0.707
					c0.071,0.221,0.277,0.438,0.762,0.542c0.482,0.081,0.726-0.047,0.768-0.242c0.041-0.197-0.091-0.456-0.233-0.725
					C157.54,232.791,157.244,232.165,157.244,232.165z"/>
				<path style="fill:#FCC267;" d="M155.361,232.068c0.004,0.001-0.283,0.191-0.479,0.434c-0.191,0.245-0.289,0.561,0.163,0.825
					c0.462,0.249,0.518-0.077,0.477-0.448C155.482,232.502,155.361,232.068,155.361,232.068z"/>
				<path style="fill:#FCC267;" d="M153.816,231.339c0.001,0-0.307,0.095-0.529,0.274c-0.232,0.191-0.389,0.441-0.209,0.672
					C153.414,232.755,153.797,232.134,153.816,231.339z"/>
				<path style="fill:#FCC267;" d="M151.576,230.933c-0.006-0.016-0.366,0.251-0.496,0.609c-0.136,0.362-0.013,0.73,0.261,0.958
					c0.258,0.245,0.35,0.022,0.446-0.357C151.874,231.761,151.87,231.23,151.576,230.933z"/>
			</g>
			<path style="fill:#CF5C3A;" d="M140.847,233.948c-8.779,9.514-8.591,24.538,0.547,33.883c9.136,9.357,23.818,9.543,33.122,0.567
				L140.847,233.948z"/>
			<path style="fill:#D2845A;" d="M142.197,235.317c-6.686,7.162-6.455,20.648,1.266,30.435c7.793,9.891,21.105,10.179,29.721,1.277
				L142.197,235.317z"/>
			<path style="fill:#D39F68;" d="M164.567,262.388c1.8,2.916,4.193,3.479,6.479,2.449l-19.009-19.448
				c-0.244,0.32-1.305-0.572-3.748-3.074c-4.559-4.658-8.023-4.282-10.039,3.537c-2.019,7.817,1.689,11.057,4.289,10.422
				c2.6-0.624,7.16-2.005,3.045,3.847c-4.117,5.855,1.366,7.984,9.127,10.331c7.765,2.34,5.495-4.144,4.867-6.439
				C158.945,261.718,160.186,255.303,164.567,262.388z"/>
			<path style="fill:#D78150;" d="M153.582,246.968c-0.074,0.068-0.149,0.121-0.247,0.18c-1.421,0.89-2.778-0.497-5.479-3.259
				c-1.652-1.694-3.064-2.555-3.868-2.357c-0.44,0.105-1.552,0.754-2.395,4.552c-1.008,4.516,0.427,6.415,0.887,6.885
				c0.424,0.443,0.919,0.651,1.32,0.573l0.322-0.08c1.852-0.387,3.947-0.825,5.241,0.504c1.829,1.868-0.074,4.642-0.877,5.819
				c-1.482,2.15-0.744,2.904-0.313,3.353c1.372,1.397,4.684,2.595,7.949,3.7c2.39,0.811,2.878,0.339,2.882,0.335
				c0.22-0.218,0.307-1.03-0.525-3.612l-0.127-0.4c-0.494-1.601-0.44-4.995,1.436-6.071c0.563-0.326,2.096-0.848,4.066,1.171
				c0.59,0.602,1.195,1.384,1.841,2.405c0.936,1.445,1.977,2.099,3.143,1.932L153.582,246.968z"/>
			<g>
				<path style="fill:#FCC267;" d="M152.301,246.558c-0.003,0.006-0.079,0.357-0.22,0.744c-0.067,0.186-0.144,0.393-0.129,0.578
					c0.014,0.176,0.134,0.37,0.501,0.425c0.36,0.051,0.619-0.065,0.729-0.223c0.126-0.157,0.115-0.373,0.047-0.571
					C153.072,247.106,152.627,246.741,152.301,246.558z"/>
				<path style="fill:#FCC267;" d="M150.948,246.7l-0.682-0.014c-0.339,0.021-0.661,0.095-0.502,0.523
					c0.183,0.425,0.584,0.531,0.848,0.376C150.875,247.443,150.988,247.072,150.948,246.7z"/>
				<path style="fill:#FCC267;" d="M149.486,245.254c0.014,0.031-1.974,0.015-1.414,0.977c0.285,0.486,0.662,0.465,0.931,0.199
					C149.283,246.159,149.48,245.671,149.486,245.254z"/>
				<path style="fill:#FCC267;" d="M147.841,242.996c0.006,0-0.618,0.082-1.098,0.359c-0.475,0.296-0.826,0.732-0.297,1.455
					C147.51,246.262,147.838,242.986,147.841,242.996z"/>
				<path style="fill:#FCC267;" d="M145.737,241.688c0,0-0.375,0.099-0.631,0.321c-0.261,0.224-0.405,0.524-0.06,0.893
					c0.348,0.376,0.536,0.096,0.633-0.304C145.778,242.205,145.745,241.69,145.737,241.688z"/>
				<path style="fill:#FCC267;" d="M143.834,240.63c0,0-0.342,0.147-0.552,0.411c-0.207,0.269-0.19,0.589-0.021,0.764
					c0.187,0.194,0.34,0.126,0.462-0.113C143.843,241.465,143.931,241.067,143.834,240.63z"/>
				<path style="fill:#FCC267;" d="M141.303,241.735c-0.009-0.001-0.034,0.466,0.13,0.841c0.167,0.385,0.474,0.662,0.917,0.528
					c0.438-0.103,0.335-0.361,0.092-0.708C142.194,242.07,141.741,241.71,141.303,241.735z"/>
				<path style="fill:#FCC267;" d="M140.384,243.595c-0.001-0.001-0.028,0.419,0.054,0.762c0.076,0.34,0.261,0.607,0.605,0.378
					c0.337-0.243,0.359-0.537,0.199-0.783C141.092,243.711,140.764,243.521,140.384,243.595z"/>
				<path style="fill:#FCC267;" d="M139.359,245.693c0,0,0.221,0.452,0.532,0.777c0.31,0.33,0.693,0.513,0.964,0.077
					C141.409,245.671,140.109,245.298,139.359,245.693z"/>
				<path style="fill:#FCC267;" d="M138.49,247.413c0,0.005,0.43,0.499,0.931,0.738c0.505,0.23,1.053,0.228,1.337-0.551
					c0.295-0.783-0.251-0.874-0.902-0.733C139.212,246.998,138.494,247.414,138.49,247.413z"/>
				<path style="fill:#FCC267;" d="M138.697,249.958c0,0,0.299,0.247,0.624,0.333c0.335,0.09,0.658,0.023,0.735-0.484
					c0.095-0.503-0.239-0.486-0.613-0.333C139.077,249.63,138.694,249.958,138.697,249.958z"/>
				<path style="fill:#FCC267;" d="M138.94,252.092c0,0,0.293,0.19,0.61,0.249c0.313,0.063,0.618,0.007,0.671-0.311
					c0.064-0.305-0.077-0.408-0.334-0.395C139.63,251.655,139.264,251.802,138.94,252.092z"/>
				<path style="fill:#FCC267;" d="M140.291,254.266c-0.004,0.005,0.509,0.106,0.853-0.115c0.368-0.205,0.466-0.61,0.435-0.98
					c-0.014-0.188-0.029-0.227-0.113-0.2c-0.081,0.03-0.243,0.091-0.415,0.199C140.708,253.388,140.27,253.787,140.291,254.266z"/>
				<path style="fill:#FCC267;" d="M142.551,254.717c-0.002-0.007,1.316-0.872,0.529-1.203
					C142.279,253.192,141.99,254.181,142.551,254.717z"/>
				<path style="fill:#FCC267;" d="M144.701,254.583c0,0,0.276-0.38,0.474-0.787c0.207-0.394,0.322-0.831-0.268-0.952
					C143.727,252.674,144.096,254.051,144.701,254.583z"/>
				<path style="fill:#FCC267;" d="M146.828,255.184c-0.016-0.017,0.391-0.379,0.83-0.718c0.212-0.188,0.417-0.379,0.438-0.642
					c0.028-0.263-0.154-0.625-0.695-0.886c-0.541-0.247-0.815-0.151-0.906,0.038c-0.094,0.188-0.02,0.499,0.063,0.822
					c0.098,0.326,0.192,0.682,0.233,0.937C146.826,255.001,146.822,255.187,146.828,255.184z"/>
				<path style="fill:#FCC267;" d="M148.007,255.961c0-0.006,0.33,0.09,0.659,0.152c0.316,0.044,0.715-0.008,0.607-0.695
					c-0.069-0.333-0.213-0.446-0.338-0.424c-0.123,0.028-0.248,0.173-0.371,0.328C148.323,255.654,148.01,255.962,148.007,255.961z"
					/>
				<path style="fill:#FCC267;" d="M147.9,257.469c0,0,0.172,0.261,0.374,0.497c0.21,0.239,0.471,0.448,0.725,0.19
					c0.248-0.267,0.181-0.479-0.061-0.592C148.704,257.458,148.307,257.445,147.9,257.469z"/>
				<path style="fill:#FCC267;" d="M147.212,259.395c0,0,0.046,0.403,0.191,0.789c0.151,0.375,0.409,0.74,0.914,0.546
					c0.502-0.215,0.436-0.587,0.127-0.883C148.145,259.559,147.607,259.349,147.212,259.395z"/>
				<path style="fill:#FCC267;" d="M146.239,261.038c0,0-0.11,0.406-0.067,0.76c0.027,0.37,0.193,0.631,0.553,0.456
					c0.352-0.169,0.415-0.447,0.307-0.713C146.917,261.279,146.626,261.027,146.239,261.038z"/>
				<path style="fill:#FCC267;" d="M145.066,263.348c0-0.01,0.081,0.146,0.233,0.295c0.149,0.151,0.374,0.286,0.598,0.318
					c0.456,0.072,0.764-0.221,0.857-0.445c0.048-0.104,0.024-0.15-0.059-0.243c-0.086-0.088-0.23-0.173-0.414-0.227
					C145.928,262.934,145.388,262.934,145.066,263.348z"/>
				<path style="fill:#FCC267;" d="M146.892,266.492c0.009,0.003,0.619-0.22,0.998-0.633c0.387-0.406,0.54-0.95-0.042-1.464
					c-0.277-0.264-0.459-0.276-0.623-0.155c-0.162,0.128-0.291,0.407-0.358,0.74C146.721,265.634,146.892,266.492,146.892,266.492z"
					/>
				<path style="fill:#FCC267;" d="M149.284,267.173c0.006,0.003,1.272-0.809,0.363-1.359c-0.444-0.278-0.549,0.056-0.533,0.462
					C149.129,266.683,149.284,267.168,149.284,267.173z"/>
				<path style="fill:#FCC267;" d="M151.108,267.869c0.01,0.003,1.166-0.636,0.683-1.121
					C151.322,266.265,151.036,267.009,151.108,267.869z"/>
				<path style="fill:#FCC267;" d="M153.269,268.363c0.003,0.011,1.554-0.592,0.934-1.441
					C153.598,266.066,152.955,267.596,153.269,268.363z"/>
				<path style="fill:#FCC267;" d="M155.135,268.821c0,0,0.407-0.025,0.726-0.163c0.322-0.142,0.537-0.368,0.259-0.674
					c-0.273-0.301-0.556-0.283-0.776-0.089C155.134,268.087,155.005,268.446,155.135,268.821z"/>
				<path style="fill:#FCC267;" d="M157.49,269.438c0,0,0.118-0.097,0.237-0.264c0.125-0.158,0.277-0.4,0.277-0.648
					c-0.052-0.228-0.264-0.313-0.422-0.371c-0.08-0.023-0.166-0.038-0.204-0.105c-0.021-0.006-0.005-0.056,0.02-0.11
					c0.009-0.025-0.017-0.002-0.022-0.003h-0.012l0.081-0.097c0.021-0.022,0.021-0.022,0.038-0.04
					c0.04-0.057,0.032-0.074,0.026-0.096c-0.073-0.052-0.214-0.009-0.298,0.082c-0.093,0.095-0.155,0.259-0.177,0.454
					C156.992,268.629,157.105,269.153,157.49,269.438z"/>
				<path style="fill:#FCC267;" d="M159.153,266.084c-0.002-0.007-0.572-0.297-1.126-0.324c-0.556-0.044-1.063,0.182-1.038,1.012
					c0.002,0.404,0.118,0.559,0.323,0.594c0.203,0.032,0.489-0.073,0.765-0.246C158.637,266.755,159.153,266.084,159.153,266.084z"
					/>
				<path style="fill:#FCC267;" d="M158.157,263.894c0,0-0.337-0.136-0.669-0.181c-0.327-0.036-0.685,0.036-0.623,0.656
					C157.011,265.488,158.129,263.825,158.157,263.894z"/>
				<path style="fill:#FCC267;" d="M158.027,262.14c0,0-0.234-0.22-0.503-0.394c-0.259-0.16-0.576-0.283-0.739,0.038
					C156.454,262.439,157.25,262.435,158.027,262.14z"/>
				<path style="fill:#FCC267;" d="M158.14,260.097c0,0-0.155-0.369-0.369-0.716c-0.222-0.336-0.521-0.682-1.001-0.338
					c-0.47,0.363-0.309,0.752,0.064,0.943C157.197,260.183,157.77,260.229,158.14,260.097z"/>
				<path style="fill:#FCC267;" d="M158.814,258.514l0.196-0.664c0.083-0.322,0.181-0.678-0.302-0.653
					c-0.489,0.052-0.704,0.429-0.629,0.726C158.146,258.224,158.454,258.453,158.814,258.514z"/>
				<path style="fill:#FCC267;" d="M160.431,257.919c-0.011-0.003,0.214-0.374,0.488-0.738c0.243-0.355,0.5-0.777-0.171-0.982
					c-0.339-0.083-0.601-0.021-0.744,0.105c-0.149,0.128-0.193,0.313-0.163,0.502C159.895,257.196,160.191,257.628,160.431,257.919z
					"/>
				<path style="fill:#FCC267;" d="M162.192,258.967c-0.009-0.005,0.536-0.226,1.003-0.519c0.23-0.154,0.434-0.34,0.495-0.587
					c0.063-0.251-0.02-0.568-0.417-0.933c-0.414-0.354-0.709-0.363-0.851-0.205c-0.143,0.159-0.165,0.466-0.173,0.805
					C162.244,258.213,162.192,258.967,162.192,258.967z"/>
				<path style="fill:#FCC267;" d="M163.898,260.118c0.003,0.001,0.376-0.012,0.685-0.134c0.311-0.117,0.566-0.367,0.288-0.865
					c-0.296-0.486-0.527-0.221-0.685,0.152C164.019,259.645,163.901,260.125,163.898,260.118z"/>
				<path style="fill:#FCC267;" d="M164.955,261.673c-0.002,0,0.336,0.078,0.647,0.039c0.315-0.035,0.597-0.184,0.548-0.508
					C166.09,260.576,165.4,260.945,164.955,261.673z"/>
				<path style="fill:#FCC267;" d="M166.837,263.32c-0.009,0.004,0.478-0.032,0.786-0.301c0.327-0.264,0.404-0.663,0.27-1.038
					c-0.102-0.365-0.31-0.22-0.613,0.082C167.007,262.365,166.719,262.879,166.837,263.32z"/>
			</g>
			<g>
				<path style="fill:#CBCBAB;" d="M140.656,269.108c1.615,0.048,3.53,0.491,4.709,1.673c0.557,0.567,1.139,1.32,1.529,2.139
					c-0.002-0.004-0.002-0.004-0.001-0.004c-0.046-1.415-1.064-2.903-1.997-3.848c-0.876-0.888-2.163-1.348-3.427-1.559
					C141.2,268.037,140.926,268.573,140.656,269.108z"/>
				<path style="fill:#CBCBAB;" d="M118.949,265.366c0.01,0.892,0.208,1.76,0.541,2.598c-0.041-0.29-0.073-0.582-0.075-0.882
					c-0.012-1.371,0.2-2.612,0.944-3.774c0.71-1.105,1.773-1.483,2.955-1.842c0.086-0.024,0.171-0.044,0.255-0.063
					c0.082-0.021,0.174-0.037,0.262-0.058c1.724-0.287,3.508,0.355,4.838,1.487c0.412,0.345,0.772,0.741,1.107,1.145
					c0.99-2.497,1.983-4.994,2.972-7.484c1.153-2.979,4.87-4.255,8.213-2.662c1.613,0.768,2.773,2.027,3.396,3.441
					c-0.236-2.067-1.623-4.089-3.859-5.162c-3.346-1.592-7.055-0.312-8.217,2.663c-0.986,2.498-1.982,4.987-2.97,7.483
					c-0.337-0.402-0.69-0.804-1.106-1.144c-1.33-1.13-3.12-1.777-4.842-1.487c-0.091,0.018-0.175,0.039-0.26,0.058
					c-0.086,0.02-0.164,0.044-0.258,0.065c-1.178,0.353-2.245,0.729-2.953,1.842C119.146,262.755,118.936,263.989,118.949,265.366z"
					/>
			</g>
			<path style="fill:#E3EAD1;" d="M119.415,267.082c0.036,3.338,2.66,6.236,4.909,8.345c2.478,2.317,5.504,3.854,8.689,4.825
				c3.113,0.942,6.978,1.269,10.068,0.126c2.374-0.868,4.365-3.076,4.278-5.742c-0.044-1.41-1.062-2.908-1.994-3.854
				c-1.179-1.182-3.094-1.626-4.709-1.673c1.208-2.378,2.417-4.751,3.627-7.116c1.468-2.833,0.027-6.568-3.322-8.161
				c-3.344-1.593-7.061-0.316-8.213,2.662c-0.989,2.49-1.982,4.988-2.972,7.484c-0.335-0.405-0.695-0.8-1.107-1.145
				c-1.33-1.132-3.114-1.774-4.838-1.487c-0.088,0.021-0.18,0.037-0.262,0.058c-0.084,0.019-0.169,0.039-0.255,0.063
				c-1.182,0.358-2.245,0.737-2.955,1.842C119.615,264.47,119.403,265.711,119.415,267.082z"/>
			<g>
				<path style="fill:#FFFFFF;" d="M133.322,279.272c2.69,0.826,6.022,1.095,8.689,0.12c2.047-0.757,3.768-2.65,3.702-4.965
					c-0.013-0.223-0.048-0.451-0.102-0.673c-0.217-0.307-0.45-0.595-0.689-0.838c-0.019,2.223-1.695,4.037-3.688,4.767
					c-2.676,0.989-6.003,0.712-8.69-0.111c-2.746-0.833-5.365-2.153-7.506-4.163c-0.854-0.797-1.771-1.73-2.535-2.776
					c0.055,0.313,0.15,0.615,0.25,0.912c0.843,1.367,1.999,2.566,3.07,3.571C127.953,277.114,130.574,278.433,133.322,279.272z"/>
				<path style="fill:#FFFFFF;" d="M142.409,259.442c-1.21,2.368-2.414,4.747-3.634,7.114c0.583,0.021,1.201,0.089,1.803,0.224
					c0.915-1.788,1.822-3.576,2.736-5.371c0.64-1.219,0.729-2.603,0.355-3.929c-0.207-0.29-0.439-0.566-0.699-0.836
					C143.041,257.6,142.867,258.569,142.409,259.442z"/>
			</g>
			<g>
				<path style="fill:#CBCBAB;" d="M93.07,196.823c1.283,1.001,2.592,2.509,2.868,4.169c0.139,0.789,0.179,1.75,0.031,2.648h0
					c0.769-1.172,0.792-2.988,0.575-4.313c-0.211-1.245-0.988-2.381-1.903-3.308C94.114,196.279,93.59,196.553,93.07,196.823z"/>
				<path style="fill:#CBCBAB;" d="M77.53,180.825c-0.495,0.742-0.837,1.559-1.04,2.431c0.128-0.265,0.277-0.517,0.444-0.761
					c0.774-1.123,1.65-2,2.919-2.492c1.216-0.473,2.292-0.148,3.456,0.276c0.093,0.033,0.175,0.07,0.247,0.103
					c0.083,0.032,0.162,0.066,0.247,0.107c1.563,0.798,2.652,2.381,3.094,4.097c0.132,0.523,0.2,1.055,0.243,1.587
					c2.229-1.437,4.466-2.853,6.696-4.287c2.636-1.712,6.385-0.54,8.203,2.757c0.869,1.582,1.103,3.299,0.794,4.815
					c0.994-1.814,1.024-4.278-0.194-6.479c-1.819-3.304-5.565-4.474-8.205-2.753c-2.23,1.419-4.466,2.848-6.692,4.282
					c-0.048-0.537-0.108-1.065-0.244-1.593c-0.437-1.714-1.529-3.295-3.091-4.096c-0.087-0.041-0.166-0.075-0.251-0.112
					c-0.072-0.033-0.157-0.065-0.239-0.097c-1.176-0.417-2.243-0.749-3.463-0.275C79.187,178.825,78.311,179.709,77.53,180.825z"/>
			</g>
			<path style="fill:#E3EAD1;" d="M76.935,182.495c-1.881,2.722-1.395,6.636-0.771,9.69c0.691,3.348,2.283,6.403,4.325,9.092
				c1.993,2.632,4.95,5.185,8.109,6.121c2.432,0.71,5.313,0.113,6.764-2.097c0.771-1.163,0.8-2.974,0.577-4.309
				c-0.276-1.659-1.585-3.167-2.868-4.169c2.337-1.196,4.671-2.395,7.009-3.593c2.817-1.411,3.772-5.302,1.96-8.586
				c-1.817-3.296-5.566-4.469-8.203-2.757c-2.23,1.434-4.467,2.851-6.696,4.287c-0.043-0.532-0.11-1.064-0.243-1.587
				c-0.442-1.716-1.531-3.299-3.094-4.097c-0.085-0.04-0.164-0.075-0.247-0.107c-0.072-0.033-0.154-0.07-0.247-0.103
				c-1.164-0.424-2.24-0.749-3.456-0.276C78.585,180.495,77.709,181.372,76.935,182.495z"/>
			<g>
				<path style="fill:#FFFFFF;" d="M81.292,200.671c1.718,2.269,4.271,4.487,7.007,5.285c2.103,0.623,4.588,0.102,5.835-1.808
					c0.127-0.184,0.232-0.384,0.309-0.605c-0.002-0.38-0.026-0.747-0.08-1.087c-1.285,1.782-3.69,2.252-5.727,1.654
					c-2.737-0.789-5.284-3.011-7.007-5.272c-1.759-2.326-3.137-4.961-3.728-7.857c-0.241-1.163-0.453-2.462-0.478-3.763
					c-0.134,0.289-0.237,0.583-0.326,0.882c-0.092,1.605,0.168,3.276,0.459,4.719C78.154,195.722,79.532,198.352,81.292,200.671z"/>
				<path style="fill:#FFFFFF;" d="M100.013,190.052c-2.344,1.198-4.681,2.396-7.016,3.588c0.453,0.358,0.917,0.788,1.329,1.252
					c1.766-0.902,3.531-1.8,5.294-2.716c1.216-0.601,2.08-1.671,2.529-2.965c0.003-0.361-0.024-0.725-0.082-1.103
					C101.579,188.937,100.883,189.616,100.013,190.052z"/>
			</g>
			<g>
				<path style="fill:#CBCBAB;" d="M173.596,182.661c-1.124,1.196-2.745,2.357-4.391,2.452c-0.776,0.051-1.717-0.01-2.566-0.256
					c0.004,0.001,0.004,0.001,0.004,0.001c1.041,0.903,2.806,1.136,4.117,1.061c1.224-0.08,2.43-0.742,3.436-1.567
					C173.995,183.789,173.798,183.229,173.596,182.661z"/>
				<path style="fill:#CBCBAB;" d="M190.96,168.661c-0.645-0.595-1.405-1.017-2.219-1.327c0.233,0.161,0.461,0.334,0.678,0.532
					c0.999,0.907,1.743,1.898,2.077,3.251c0.316,1.284-0.131,2.335-0.681,3.475c-0.038,0.085-0.08,0.166-0.123,0.236
					c-0.041,0.084-0.087,0.157-0.137,0.244c-0.962,1.497-2.629,2.435-4.346,2.688c-0.52,0.079-1.049,0.083-1.562,0.064
					c1.12,2.427,2.238,4.852,3.363,7.277c1.362,2.876-0.23,6.557-3.643,8.029c-1.636,0.714-3.338,0.753-4.774,0.277
					c1.651,1.212,4.045,1.513,6.323,0.529c3.411-1.484,5.009-5.159,3.642-8.035c-1.117-2.425-2.243-4.848-3.361-7.276
					c0.52,0.02,1.044,0.014,1.568-0.069c1.713-0.257,3.38-1.189,4.345-2.684c0.047-0.087,0.091-0.164,0.127-0.246
					c0.046-0.067,0.086-0.15,0.132-0.229c0.545-1.142,1.001-2.197,0.672-3.495C192.718,170.571,191.966,169.574,190.96,168.661z"/>
			</g>
			<path style="fill:#E3EAD1;" d="M189.419,167.865c-2.416-2.213-6.282-2.161-9.319-1.863c-3.334,0.337-6.485,1.613-9.343,3.381
				c-2.787,1.729-5.625,4.455-6.899,7.568c-0.976,2.392-0.746,5.376,1.23,7.104c1.05,0.914,2.806,1.142,4.117,1.058
				c1.646-0.095,3.267-1.256,4.391-2.452c0.894,2.517,1.777,5.022,2.665,7.531c1.037,3.015,4.7,4.417,8.107,2.937
				c3.413-1.472,5.005-5.153,3.643-8.029c-1.125-2.424-2.243-4.85-3.363-7.277c0.513,0.018,1.043,0.015,1.562-0.064
				c1.717-0.253,3.384-1.191,4.346-2.688c0.049-0.087,0.096-0.159,0.137-0.244c0.043-0.07,0.085-0.15,0.123-0.236
				c0.55-1.14,0.996-2.19,0.681-3.475C191.162,169.763,190.418,168.772,189.419,167.865z"/>
			<g>
				<path style="fill:#FFFFFF;" d="M171.249,170.273c-2.404,1.488-4.862,3.839-5.959,6.538c-0.847,2.061-0.645,4.633,1.064,6.124
					c0.162,0.153,0.349,0.274,0.554,0.374c0.368,0.047,0.729,0.054,1.064,0.045c-1.576-1.502-1.756-3.997-0.931-6.003
					c1.099-2.686,3.55-5.04,5.96-6.531c2.463-1.54,5.183-2.639,8.065-2.916c1.154-0.115,2.445-0.191,3.706-0.072
					c-0.265-0.158-0.531-0.298-0.815-0.415c-1.549-0.283-3.202-0.209-4.645-0.063C176.434,167.638,173.714,168.74,171.249,170.273z"
					/>
				<path style="fill:#FFFFFF;" d="M179.355,190.474c-0.882-2.511-1.771-5.021-2.661-7.534c-0.401,0.43-0.869,0.852-1.37,1.221
					c0.669,1.893,1.344,3.79,2.009,5.682c0.446,1.303,1.379,2.294,2.58,2.898c0.348,0.039,0.709,0.049,1.078,0.028
					C180.253,192.181,179.676,191.407,179.355,190.474z"/>
			</g>
			<g>
				<path style="fill:#87A55E;" d="M140.914,205.457c0,0,0.739,5.535,1.672,3.088c0,0,0.465,6.208,1.548,3.971
					c0,0,3.421,6.159,2.344-0.749c0,0,2.029,0.599-1.308-4.239c0,0,2.171,0.254-1.346-3.823c0,0,2.169-1.001-2.9-2.351
					c-0.589-0.932-1.274-1.805-2.053-2.462l-0.434,0.552c0.679,0.566,1.284,1.328,1.813,2.155
					C140.019,203.052,139.315,207.867,140.914,205.457z"/>
				<path style="fill:#87A55E;" d="M111.038,192.245c0,0,0.748,5.534,1.672,3.095c0,0,0.465,6.198,1.539,3.956
					c0,0,3.434,6.165,2.349-0.744c0,0,2.041,0.592-1.295-4.237c0,0,2.163,0.251-1.346-3.834c0,0,2.158-0.986-2.904-2.347
					c-0.591-0.926-1.275-1.798-2.058-2.45l-0.432,0.547c0.672,0.566,1.288,1.332,1.818,2.155
					C110.136,189.837,109.445,194.657,111.038,192.245z"/>
				<path style="fill:#87A55E;" d="M180.747,218.398c0,0,5.201,1.726,3.441-0.202c0,0,5.676,2.271,4.158,0.302
					c0,0,6.903-0.486,0.348-2.496c0,0,1.392-1.615-4.3-0.633c0,0,1.149-1.89-3.946-0.421c0,0,0.044-2.425-3.321,1.652
					c-1.067,0.145-2.128,0.398-3.033,0.833l0.29,0.642c0.793-0.376,1.724-0.608,2.678-0.749
					C178.241,218.178,182.193,220.917,180.747,218.398z"/>
				<path style="fill:#87A55E;" d="M82.166,232.342c0,0,5.201,1.727,3.45-0.2c0,0,5.665,2.269,4.15,0.296
					c0,0,6.901-0.484,0.343-2.491c0,0,1.398-1.622-4.297-0.635c0,0,1.148-1.903-3.945-0.428c0,0,0.044-2.424-3.314,1.665
					c-1.071,0.134-2.136,0.388-3.04,0.821l0.289,0.646c0.784-0.379,1.724-0.615,2.686-0.749
					C79.666,232.126,83.609,234.862,82.166,232.342z"/>
				<path style="fill:#87A55E;" d="M122.795,177.495c0,0,5.329-1.618,2.794-2.167c0,0,6.027-1.447,3.665-2.163
					c0,0,5.55-4.398-1.08-2.221c0,0,0.292-2.116-3.972,1.981c0,0-0.066-2.201-3.556,1.944c0,0-1.293-1.986-1.885,3.266
					c-0.825,0.73-1.583,1.564-2.11,2.44l0.596,0.343c0.458-0.761,1.126-1.487,1.85-2.158
					C120.568,178.764,125.396,178.691,122.795,177.495z"/>
				<path style="fill:#87A55E;" d="M70.98,203.393c0,0-1.552,5.351,0.288,3.514c0,0-2.073,5.839-0.18,4.263
					c0,0,0.653,7.041,2.443,0.298c0,0,1.617,1.4,0.506-4.402c0,0,1.882,1.146,0.313-4.045c0,0,2.372,0-1.703-3.359
					c-0.167-1.1-0.449-2.183-0.894-3.102l-0.621,0.32c0.392,0.792,0.641,1.751,0.797,2.719
					C71.128,200.832,68.555,204.91,70.98,203.393z"/>
				<path style="fill:#87A55E;" d="M184.419,170.276c0,0-1.545,5.346,0.284,3.521c0,0-2.066,5.837-0.178,4.246
					c0,0,0.655,7.057,2.447,0.31c0,0,1.61,1.403,0.512-4.404c0,0,1.873,1.141,0.311-4.036c0,0,2.369-0.003-1.705-3.372
					c-0.171-1.091-0.449-2.17-0.897-3.099l-0.614,0.316c0.388,0.805,0.641,1.751,0.794,2.732
					C184.569,167.711,181.995,171.798,184.419,170.276z"/>
				<path style="fill:#87A55E;" d="M105.45,264.379c0,0,5.197,1.723,3.448-0.204c0,0,5.671,2.268,4.15,0.292
					c0,0,6.902-0.478,0.343-2.491c0,0,1.396-1.611-4.297-0.636c0,0,1.155-1.891-3.943-0.425c0,0,0.039-2.421-3.321,1.665
					c-1.068,0.141-2.139,0.39-3.041,0.824l0.293,0.642c0.786-0.376,1.727-0.608,2.681-0.74
					C102.946,264.164,106.891,266.891,105.45,264.379z"/>
			</g>
			<path style="fill:#FFFFFF;" d="M90.918,214.287c2.044,8.491-2.54,17.045-10.383,19.943c0.603-0.076,1.211-0.189,1.813-0.341
				c8.896-2.206,14.328-11.377,12.146-20.487c-2.196-9.115-11.184-14.709-20.08-12.503c-0.609,0.153-1.198,0.333-1.759,0.545
				C80.924,200.359,88.872,205.798,90.918,214.287z"/>
		</g>
	</g>
	<g>
		<path style="fill:#B79866;" d="M269.657,110.069c-1.02-12.093-1.9-24.221-2.103-36.358c-0.065-3.835-0.753-7.699-4.909-9.014
			c-4.722-1.493-10.012-2.015-14.949-2.176c-4.497-0.146-8.971-0.125-12.366,3.141c-3.108,2.993-4.457,8.432-6.009,12.337
			c-4.499,11.319-8.413,22.904-12.057,34.523c-1.534,4.889-3.374,9.957-4.158,15.033c-0.003,0.014-0.003,0.026-0.004,0.04
			c-1.264-2.671-3.546-5.224-5.297-6.39c-1.899-1.264-4.507-0.889-6.601-0.583c-1.344,0.197-2.696,0.478-4.042,0.808
			c6.804-10.569,13.763-21.038,20.811-31.446c1.703-2.515,3.824-4.937,4.321-8.009c0.438-2.7-0.934-5.137-1.861-7.577
			c-1.957-5.145-4.805-8.771-10.685-7.889c-7.539,1.13-15.057,2.386-22.499,4.047c-3.201,0.715-6.372,1.558-9.521,2.474
			c-0.711,0.207-1.471,0.426-2.212,0.697c-1.853-2.468-4.403-3.844-8.269-3.265c-7.538,1.13-15.057,2.387-22.498,4.048
			c-3.201,0.714-6.372,1.559-9.522,2.474c-1.969,0.573-4.306,1.217-5.574,2.977c-4.084-2.685-9.885-3.981-14.097-4.12
			c-6.51-0.215-6.242,8.739-6.751,13.101c-0.083,0.708-0.165,1.42-0.247,2.13c-2.801-5.393-7.317-10.481-12.386-12.231
			c-9.324-3.22-19.438,0.924-27.791,5.053c-3.599,1.779-8.737,3.941-11.449,6.941c-2.125,2.351-1.649,7.078-1.733,9.99
			c-0.297,10.318,0.272,20.659,0.226,30.98c-0.021,4.338-0.653,8.558-0.854,12.851c-0.169,3.618,3.165,5.709,6.074,6.824
			c2.811,1.077,8.266,2.367,11.087,0.713c3.51-2.056,2.633-8.732,2.971-12.109c0.225-2.163,0.467-4.326,0.71-6.488
			c8.283-3.247,16.307-7.313,23.271-12.896c2.584-2.07,5.4-4.622,7.731-7.521c-0.633,8.824-0.924,17.67-0.566,26.387
			c0.275,6.7,9.297,7.76,14.39,8.197c6.758,0.579,5.819-11.199,6.335-15.322c1.11-8.851,2.357-17.692,3.747-26.503
			c0.653-4.142,1.393-8.269,2.183-12.386c0.193-1.007,0.451-2.042,0.681-3.087c0.642,0.776,1.237,1.467,1.684,2.028
			c4.048,5.091,9.457,3.133,14.735,1.817c-6.121,9.633-11.851,19.534-17.128,29.645c-1.926,3.691-5.568,8.629-4.503,12.98
			c1.005,4.102,8.07,7.948,11.587,9.068c5.087,1.622,10.849-1.501,15.678-2.876c3.38-0.962,6.777-1.869,10.16-2.825
			c2.242-0.634,4.83-1.049,5.827-3.424c0.227-0.541,0.315-1.132,0.313-1.746c2.349,3.234,7.633,5.997,10.523,6.919
			c5.086,1.622,10.849-1.502,15.678-2.877c3.38-0.962,6.776-1.869,10.159-2.826c2.24-0.634,4.833-1.048,5.827-3.424
			c0.07-0.17,0.117-0.349,0.164-0.528c0.813,1.289,2.147,2.282,3.883,3.202c2.953,1.564,7.986,3.34,10.96,1.114
			c1.656-1.241,2.095-3.447,2.719-5.312c0.77-2.302,1.59-4.58,2.456-6.846c2.753-0.918,5.541-1.695,8.364-2.383
			c2.692-0.636,5.386-1.259,8.08-1.883c0.486,3.879,0.979,8.383,3.163,11.264c2.363,3.118,7.428,3.018,10.919,2.803
			c3.965-0.244,6.836-1.237,6.965-5.626C271.576,122.659,270.167,116.132,269.657,110.069z M82.27,109.703
			c-1.29,0.925-2.618,1.754-3.982,2.518c0.186-1.247,0.362-2.497,0.552-3.744c0.299-1.956,0.633-3.906,0.981-5.854
			c0.422-2.364,1.68-2.41,3.888-3.191c1.738-0.615,3.549-0.991,5.383-1.144c2.668-0.222,1.36,1.831,0.587,3.41
			C88.082,104.958,85.102,107.492,82.27,109.703z M170.302,130.949c-1.303-2.448-3.379-4.713-4.998-5.791
			c-1.9-1.264-4.507-0.89-6.601-0.583c-1.344,0.196-2.696,0.478-4.043,0.809c6.804-10.57,13.763-21.038,20.811-31.446
			c0.96-1.418,2.045-2.81,2.904-4.302c3.915,3.679,8.876,1.931,13.727,0.722c-6.12,9.633-11.851,19.534-17.127,29.645
			C173.343,123.13,170.494,127.147,170.302,130.949z M243.268,103.361c-0.492,0.104-0.98,0.215-1.47,0.322
			c1.573-3.999,3.184-7.982,4.828-11.953c0.362,3.598,0.762,7.192,1.176,10.785C246.288,102.781,244.775,103.059,243.268,103.361z"
			/>
		<path style="fill:#FFFFFF;" d="M267.515,107.66c-1.02-12.093-1.9-24.222-2.104-36.358c-0.064-3.835-0.752-7.698-4.908-9.014
			c-4.722-1.494-10.013-2.015-14.95-2.177c-4.497-0.146-8.971-0.125-12.366,3.142c-3.109,2.992-4.457,8.431-6.009,12.336
			c-4.498,11.32-8.414,22.904-12.058,34.522c-1.534,4.889-3.374,9.958-4.157,15.033c-0.001,0.014-0.003,0.026-0.004,0.039
			c-1.263-2.671-3.545-5.224-5.297-6.39c-1.899-1.264-4.507-0.889-6.599-0.583c-1.345,0.196-2.697,0.477-4.043,0.808
			c6.805-10.569,13.763-21.038,20.81-31.446c1.703-2.515,3.823-4.937,4.321-8.009c0.438-2.7-0.934-5.137-1.861-7.577
			c-1.957-5.144-4.805-8.771-10.685-7.889c-7.539,1.13-15.056,2.387-22.499,4.047c-3.201,0.714-6.373,1.559-9.521,2.474
			c-0.711,0.207-1.47,0.426-2.212,0.697c-1.853-2.468-4.403-3.845-8.269-3.265c-7.538,1.13-15.057,2.387-22.498,4.048
			c-3.202,0.714-6.373,1.558-9.522,2.474c-1.969,0.572-4.306,1.216-5.574,2.976c-4.084-2.685-9.885-3.981-14.097-4.121
			c-6.51-0.214-6.242,8.739-6.752,13.102c-0.083,0.708-0.164,1.419-0.246,2.13c-2.801-5.392-7.316-10.481-12.385-12.231
			c-9.325-3.22-19.438,0.925-27.791,5.052c-3.6,1.779-8.737,3.941-11.45,6.941c-2.125,2.351-1.648,7.078-1.732,9.99
			c-0.298,10.319,0.272,20.659,0.224,30.98c-0.019,4.338-0.652,8.558-0.854,12.851c-0.169,3.618,3.165,5.71,6.075,6.825
			c2.81,1.076,8.264,2.367,11.087,0.713c3.51-2.056,2.633-8.732,2.97-12.109c0.227-2.164,0.469-4.326,0.71-6.488
			c8.283-3.249,16.306-7.313,23.271-12.896c2.582-2.07,5.399-4.621,7.73-7.52c-0.633,8.824-0.924,17.671-0.566,26.387
			c0.274,6.699,9.297,7.759,14.389,8.197c6.758,0.579,5.819-11.198,6.336-15.321c1.109-8.852,2.356-17.693,3.745-26.504
			c0.654-4.142,1.394-8.269,2.183-12.386c0.193-1.007,0.452-2.041,0.681-3.086c0.642,0.775,1.237,1.466,1.684,2.028
			c4.047,5.09,9.457,3.133,14.735,1.817c-6.121,9.633-11.851,19.534-17.128,29.644c-1.927,3.691-5.567,8.63-4.502,12.981
			c1.004,4.102,8.069,7.947,11.586,9.067c5.087,1.622,10.849-1.501,15.677-2.875c3.381-0.962,6.778-1.87,10.161-2.826
			c2.241-0.635,4.83-1.049,5.826-3.424c0.228-0.542,0.316-1.131,0.314-1.746c2.349,3.233,7.634,5.996,10.523,6.918
			c5.087,1.621,10.849-1.502,15.678-2.876c3.38-0.962,6.777-1.869,10.159-2.826c2.241-0.633,4.833-1.048,5.827-3.424
			c0.071-0.169,0.116-0.349,0.163-0.528c0.814,1.289,2.147,2.282,3.885,3.202c2.952,1.565,7.986,3.34,10.959,1.114
			c1.657-1.241,2.095-3.447,2.719-5.312c0.77-2.302,1.59-4.58,2.456-6.846c2.753-0.919,5.542-1.695,8.365-2.382
			c2.691-0.636,5.386-1.259,8.079-1.883c0.486,3.879,0.979,8.383,3.163,11.264c2.363,3.118,7.427,3.018,10.919,2.802
			c3.966-0.244,6.836-1.236,6.965-5.626C269.434,120.249,268.026,113.723,267.515,107.66z M80.128,107.293
			c-1.289,0.926-2.618,1.755-3.983,2.519c0.186-1.248,0.362-2.497,0.552-3.744c0.299-1.956,0.633-3.907,0.981-5.855
			c0.422-2.365,1.68-2.41,3.889-3.19c1.738-0.616,3.548-0.991,5.383-1.144c2.667-0.222,1.36,1.831,0.586,3.409
			C85.939,102.547,82.959,105.082,80.128,107.293z M168.159,128.539c-1.302-2.448-3.377-4.713-4.997-5.79
			c-1.9-1.264-4.508-0.89-6.602-0.583c-1.343,0.197-2.695,0.477-4.042,0.809c6.805-10.57,13.763-21.039,20.811-31.446
			c0.96-1.419,2.044-2.81,2.904-4.302c3.914,3.679,8.874,1.931,13.726,0.722c-6.121,9.633-11.851,19.534-17.128,29.645
			C171.201,120.719,168.351,124.738,168.159,128.539z M241.125,100.951c-0.491,0.104-0.98,0.215-1.47,0.322
			c1.573-3.999,3.184-7.982,4.829-11.953c0.362,3.598,0.761,7.192,1.175,10.785C244.145,100.372,242.633,100.649,241.125,100.951z"
			/>
		<g>
			<path style="fill:#C3383A;" d="M68.699,137.641c-0.28,2.722-0.503,5.386-0.667,7.994c-0.178,0.83-0.481,1.393-0.911,1.687
				c-0.43,0.294-1.313,0.377-2.647,0.246c-1.344-0.231-2.648-0.454-3.914-0.665c-1.267-0.214-2.403-0.539-3.409-0.98
				c-1.006-0.44-1.787-1.041-2.342-1.804c-0.554-0.761-0.74-1.812-0.56-3.151c0.341-1.252,0.567-3.333,0.678-6.241
				c0.11-2.909,0.147-6.205,0.109-9.889c-0.037-3.682-0.088-7.505-0.151-11.466c-0.063-3.96-0.099-7.618-0.106-10.974
				c-0.006-3.355,0.075-6.172,0.243-8.451c0.17-2.278,0.495-3.567,0.976-3.867c1.821-1.186,3.842-2.429,6.06-3.729
				c2.218-1.3,4.521-2.505,6.91-3.618c2.388-1.111,4.803-2.074,7.245-2.886c2.441-0.811,4.819-1.351,7.134-1.617
				c2.314-0.266,4.494-0.201,6.54,0.193c2.045,0.395,3.864,1.23,5.458,2.505c1.892,1.757,3.659,3.664,5.3,5.724
				c1.641,2.059,3.012,4.64,4.115,7.741c0.497,1.53,0.722,2.983,0.673,4.361c-0.051,1.377-0.31,2.698-0.776,3.962
				c-0.468,1.264-1.091,2.493-1.869,3.682c-0.78,1.192-1.649,2.366-2.609,3.523c-1.555,1.874-3.455,3.729-5.699,5.564
				c-2.245,1.837-4.713,3.592-7.405,5.266c-2.693,1.674-5.535,3.223-8.53,4.646c-2.995,1.423-5.968,2.679-8.918,3.766
				C69.29,132.093,68.98,134.919,68.699,137.641z M80.551,109.65c2.52-1.886,4.556-3.78,6.108-5.679
				c1.551-1.898,2.605-3.687,3.162-5.366c0.555-1.679,0.58-3.054,0.074-4.126c-0.208-0.591-0.793-1.006-1.756-1.248
				c-0.964-0.241-2.161-0.269-3.593-0.085c-1.432,0.185-3.025,0.562-4.776,1.131c-1.753,0.57-3.524,1.346-5.315,2.325
				c-0.553,2.797-1.06,5.693-1.518,8.684c-0.46,2.993-0.919,6.112-1.38,9.358C75.033,113.202,78.03,111.537,80.551,109.65z"/>
			<path style="fill:#C3383A;" d="M127.457,82.136c0.342,0.681,0.401,1.717,0.175,3.111c-0.496,2.334-1.022,5.003-1.582,8.004
				c-0.56,3.002-1.104,6.167-1.634,9.496c-0.529,3.33-1.04,6.733-1.529,10.211c-0.491,3.478-0.962,6.878-1.416,10.2
				c-0.454,3.322-0.861,6.463-1.222,9.42c-0.361,2.958-0.662,5.592-0.904,7.903c-0.173,0.88-0.462,1.466-0.866,1.759
				c-0.406,0.291-1.278,0.347-2.616,0.167c-1.345-0.231-2.626-0.469-3.842-0.71c-1.219-0.242-2.382-0.592-3.492-1.048
				c-1.211-0.446-2.039-1.018-2.486-1.714c-0.446-0.694-0.655-1.705-0.626-3.031c-0.063-1.773-0.061-4.075,0.006-6.903
				c0.068-2.83,0.187-5.93,0.356-9.301c0.17-3.372,0.386-6.926,0.648-10.663c0.263-3.736,0.544-7.398,0.847-10.987
				c0.302-3.586,0.634-6.987,0.997-10.199c0.361-3.211,0.709-6.028,1.044-8.45c0.317-1.503,0.851-2.456,1.603-2.857
				c0.75-0.399,1.929-0.446,3.534-0.138c1.6,0.259,3.346,0.707,5.235,1.343c1.89,0.638,3.558,1.348,5.004,2.129
				C126.192,80.703,127.114,81.457,127.457,82.136z"/>
			<path style="fill:#C3383A;" d="M146.549,88.941c-1.82,0.398-3.592,0.881-5.319,1.448c-1.288,0.375-2.501,0.461-3.637,0.262
				c-1.138-0.2-2.264-0.832-3.38-1.898c-0.344-0.425-0.734-0.923-1.169-1.493c-0.434-0.57-0.886-1.188-1.355-1.857
				c-0.469-0.667-0.923-1.325-1.365-1.97c-0.442-0.645-0.842-1.257-1.201-1.833c-0.562-1.117-0.721-1.89-0.483-2.32
				c0.239-0.429,0.847-0.867,1.823-1.313c2.222-0.714,4.735-1.433,7.542-2.151c2.806-0.719,5.731-1.384,8.777-1.999
				c3.044-0.614,6.119-1.18,9.225-1.697c3.104-0.518,6.036-0.981,8.795-1.391c1.508-0.19,2.634-0.104,3.38,0.258
				c0.746,0.363,1.449,1.099,2.112,2.206c0.781,1.3,1.36,2.456,1.733,3.462c0.373,1.008,0.754,1.951,1.141,2.83
				c0.511,1.123,0.751,2.207,0.722,3.252c-0.03,1.045-0.495,2.195-1.395,3.448c-4.698,6.896-9.4,13.893-14.104,20.992
				c-4.705,7.1-9.164,13.972-13.376,20.619c1.822-0.627,3.641-1.165,5.456-1.614c1.814-0.447,3.743-0.894,5.787-1.339
				c2.745-0.56,4.698-0.056,5.862,1.514c0.694,0.902,1.297,1.787,1.811,2.654c0.512,0.868,0.91,1.721,1.191,2.559
				c0.497,0.972,0.563,1.677,0.197,2.118c-0.366,0.441-1.197,0.798-2.493,1.07c-3.171,0.905-6.517,1.84-10.037,2.803
				c-3.522,0.963-6.761,1.938-9.721,2.926c-0.985,0.345-1.829,0.563-2.532,0.655c-0.705,0.09-1.338,0.111-1.901,0.063
				c-0.564-0.05-1.072-0.168-1.52-0.354c-0.45-0.188-0.913-0.386-1.39-0.596c-0.915-0.525-1.776-1.055-2.589-1.59
				c-0.813-0.534-1.84-1.202-3.084-2.002c-0.386-0.319-0.787-0.663-1.203-1.032c-0.415-0.367-0.758-0.768-1.026-1.201
				c-0.269-0.433-0.44-0.913-0.515-1.439c-0.074-0.527,0.037-1.11,0.333-1.748c0.969-2.175,2.324-4.945,4.071-8.312
				c1.747-3.366,3.743-7.034,5.993-11.008c2.249-3.972,4.652-8.072,7.208-12.303c2.556-4.229,5.127-8.295,7.714-12.197
				C150.394,88.038,148.368,88.543,146.549,88.941z"/>
			<path style="fill:#C3383A;" d="M189.05,84.988c-1.819,0.398-3.592,0.881-5.319,1.448c-1.288,0.375-2.501,0.461-3.637,0.263
				c-1.138-0.2-2.264-0.832-3.38-1.898c-0.344-0.426-0.734-0.923-1.168-1.494c-0.434-0.57-0.886-1.188-1.355-1.857
				c-0.47-0.668-0.924-1.325-1.365-1.97c-0.442-0.646-0.842-1.257-1.201-1.834c-0.562-1.117-0.721-1.89-0.483-2.319
				c0.239-0.429,0.847-0.867,1.823-1.314c2.222-0.714,4.735-1.432,7.542-2.151c2.805-0.719,5.731-1.384,8.776-1.999
				c3.044-0.613,6.119-1.18,9.225-1.697c3.104-0.518,6.036-0.981,8.796-1.39c1.508-0.191,2.633-0.104,3.38,0.258
				c0.746,0.363,1.449,1.098,2.112,2.206c0.782,1.3,1.36,2.455,1.733,3.462c0.373,1.008,0.754,1.951,1.141,2.83
				c0.511,1.123,0.751,2.206,0.722,3.251c-0.03,1.045-0.495,2.195-1.395,3.448c-4.699,6.896-9.4,13.893-14.105,20.992
				c-4.705,7.1-9.163,13.972-13.375,20.619c1.822-0.627,3.642-1.164,5.456-1.613c1.814-0.448,3.743-0.895,5.787-1.339
				c2.744-0.561,4.698-0.056,5.861,1.515c0.695,0.901,1.298,1.786,1.812,2.653c0.512,0.868,0.909,1.721,1.191,2.559
				c0.497,0.972,0.563,1.677,0.197,2.118c-0.366,0.441-1.197,0.798-2.493,1.071c-3.171,0.905-6.516,1.84-10.037,2.803
				c-3.521,0.962-6.761,1.938-9.721,2.925c-0.985,0.345-1.829,0.564-2.532,0.655c-0.705,0.09-1.338,0.111-1.902,0.063
				c-0.564-0.05-1.071-0.167-1.52-0.355c-0.45-0.187-0.913-0.386-1.39-0.596c-0.914-0.524-1.776-1.055-2.589-1.59
				c-0.812-0.534-1.84-1.202-3.085-2.001c-0.385-0.319-0.787-0.663-1.202-1.032c-0.416-0.367-0.758-0.769-1.026-1.201
				c-0.27-0.432-0.44-0.912-0.516-1.439c-0.074-0.527,0.038-1.109,0.333-1.747c0.968-2.175,2.324-4.946,4.07-8.312
				c1.747-3.366,3.744-7.034,5.994-11.007c2.25-3.972,4.652-8.073,7.208-12.303c2.556-4.229,5.127-8.295,7.714-12.197
				C192.895,84.085,190.869,84.59,189.05,84.988z"/>
			<path style="fill:#C3383A;" d="M238.331,117.017c-3.708,0.879-6.962,1.83-9.766,2.854c-0.826,2.06-1.537,3.97-2.137,5.729
				c-0.599,1.76-1.177,3.479-1.732,5.157c-0.324,0.894-0.769,1.444-1.334,1.65c-0.566,0.205-1.447,0.159-2.644-0.136
				c-0.679-0.192-1.423-0.415-2.236-0.669c-0.812-0.255-1.64-0.546-2.484-0.876c-0.642-0.347-1.203-0.637-1.683-0.873
				c-0.48-0.234-0.863-0.542-1.153-0.923c-0.29-0.379-0.476-0.882-0.561-1.511c-0.083-0.628-0.023-1.485,0.181-2.572
				c0.886-3.591,2.083-7.822,3.587-12.691c1.503-4.87,3.146-9.904,4.926-15.104c1.779-5.2,3.615-10.34,5.507-15.424
				c1.892-5.083,3.72-9.614,5.486-13.592c0.629-1.432,1.509-2.632,2.639-3.602c1.131-0.969,2.889-1.463,5.278-1.482
				c2.077-0.09,3.931-0.099,5.566-0.022c1.634,0.076,3.133,0.204,4.498,0.382c1.364,0.178,2.63,0.392,3.797,0.639
				c1.167,0.248,2.344,0.468,3.533,0.663c1.613,0.41,2.677,1.048,3.19,1.915c0.513,0.868,0.762,2.04,0.748,3.516
				c0.03,3.608,0.16,7.74,0.39,12.397c0.23,4.658,0.529,9.512,0.897,14.563c0.367,5.051,0.775,10.111,1.221,15.18
				c0.446,5.069,0.896,9.769,1.35,14.1c0.084,0.907-0.046,1.555-0.391,1.943c-0.346,0.387-1.174,0.643-2.484,0.765
				c-1.311,0.122-2.525,0.197-3.641,0.225c-1.117,0.027-2.273-0.107-3.47-0.402c-1.243-0.241-2.13-0.615-2.66-1.125
				c-0.531-0.51-0.963-1.461-1.295-2.854c-0.338-1.443-0.664-3.028-0.976-4.753c-0.313-1.725-0.642-3.613-0.985-5.667
				C245.758,115.272,242.037,116.139,238.331,117.017z M240.823,103.628c2.27-0.465,4.558-0.882,6.863-1.249
				c-0.486-4.124-0.945-8.238-1.378-12.344c-0.433-4.103-0.787-8.176-1.06-12.22c-1.675,3.869-3.476,8.142-5.406,12.822
				c-1.929,4.681-3.856,9.526-5.78,14.535C236.299,104.609,238.552,104.094,240.823,103.628z"/>
		</g>
	</g>
</g>
</svg>
