 <svg version="1.0" xmlns="http://www.w3.org/2000/svg"  width="20" height="20" viewBox="0 0 300.000000 300.000000"  preserveAspectRatio="xMidYMid meet">  <g transform="translate(0.000000,300.000000) scale(0.100000,-0.100000)" fill="#ffffffff" stroke="none"> <path d="M1324 2985 c-240 -37 -434 -112 -630 -244 -362 -244 -606 -664 -632 -1088 -18 -293 25 -513 146 -763 l46 -95 -129 -382 c-121 -358 -128 -384 -113 -400 19 -18 -13 -27 610 171 l207 65 87 -40 c114 -53 293 -103 420 -119 125 -16 377 -8 484 15 596 129 1045 585 1157 1176 26 141 24 400 -6 539 -59 278 -182 515 -369 712 -221 232 -481 377 -791 439 -128 26 -366 33 -487 14z m341 -300 c218 -16 486 -141 664 -310 150 -142 272 -346 328 -550 26 -93 28 -114 28 -285 0 -196 -7 -240 -61 -392 -120 -341 -419 -619 -775 -722 -131 -37 -236 -50 -373 -43 -198 10 -366 58 -531 152 l-79 45 -189 -60 c-103 -33 -194 -60 -200 -60 -9 0 9 66 51 190 l64 190 -40 63 c-84 129 -144 274 -173 422 -22 111 -18 360 8 465 87 349 307 626 621 784 159 80 392 131 547 120 22 -2 72 -6 110 -9z"/> <path d="M1010 2206 c-70 -20 -105 -42 -139 -88 -72 -97 -99 -253 -66 -378 65 -251 391 -627 665 -769 41 -21 131 -58 200 -82 121 -42 129 -43 250 -44 123 0 126 1 186 33 77 42 132 95 157 152 26 58 35 183 16 207 -20 24 -316 164 -361 170 -42 6 -58 -7 -158 -126 l-46 -54 -56 25 c-31 15 -85 45 -120 69 -74 50 -230 203 -277 272 l-33 48 35 42 c56 68 77 109 77 150 0 53 -123 340 -158 367 -29 23 -101 26 -172 6z"/> </g> </svg> 